<svg width="100" height="100" viewBox="0 0 100 100" fill="none" xmlns="http://www.w3.org/2000/svg">
<path d="M26.065 12.0352C31.512 13.497 37.2615 11.1155 40.0794 6.23021C44.4866 -1.41007 55.5134 -1.41007 59.9206 6.23021C62.7386 11.1155 68.488 13.497 73.935 12.0352C82.4538 9.74903 90.251 17.5462 87.9648 26.065C86.503 31.512 88.8845 37.2615 93.7698 40.0794C101.41 44.4866 101.41 55.5134 93.7698 59.9206C88.8845 62.7386 86.503 68.488 87.9648 73.935C90.251 82.4538 82.4538 90.251 73.935 87.9648C68.488 86.503 62.7386 88.8845 59.9206 93.7698C55.5134 101.41 44.4866 101.41 40.0794 93.7698C37.2615 88.8845 31.512 86.503 26.065 87.9648C17.5462 90.251 9.74903 82.4538 12.0352 73.935C13.497 68.488 11.1155 62.7386 6.23021 59.9206C-1.41007 55.5134 -1.41007 44.4866 6.23021 40.0794C11.1155 37.2615 13.497 31.512 12.0352 26.065C9.74903 17.5462 17.5462 9.74903 26.065 12.0352Z" fill="#020202" stroke="white"/>
<circle cx="50" cy="50" r="20" fill="#FF0000"/>
<circle cx="49.5" cy="49.5" r="31" stroke="#FF0000" stroke-opacity="0.37"/>
</svg>
