<svg width="800" height="602" viewBox="0 0 800 602" fill="none" xmlns="http://www.w3.org/2000/svg">
<path d="M800 82.9V546.533C800 576.667 775.6 601.067 745.467 601.067H618.167V292L400 455.667L181.833 292V601.1H54.5333C47.3691 601.1 40.2751 599.688 33.6566 596.946C27.0382 594.203 21.025 590.183 15.9607 585.116C10.8963 580.048 6.88014 574.033 4.14154 567.413C1.40295 560.792 -0.00436892 553.698 1.01884e-05 546.533V82.9C1.01884e-05 15.4667 76.9667 -23.0333 130.9 17.4333L181.833 55.6667L400 219.267L618.167 55.6L669.1 17.4333C723 -23 800 15.4667 800 82.9Z" fill="url(#paint0_linear_141_3)"/>
<defs>
<linearGradient id="paint0_linear_141_3" x1="30.5" y1="-32.5" x2="667.5" y2="655" gradientUnits="userSpaceOnUse">
<stop stop-color="white"/>
<stop offset="1" stop-color="#999999" stop-opacity="0.3"/>
</linearGradient>
</defs>
</svg>
